<svg width="22" height="22" viewBox="0 0 22 22" fill="none" xmlns="http://www.w3.org/2000/svg">
<path d="M10.076 0.82951C10.6762 0.0381659 11.866 0.0381661 12.4662 0.82951L16.191 5.74027C16.2736 5.84917 16.3707 5.94628 16.4796 6.02888L21.3904 9.75372C22.1817 10.354 22.1817 11.5437 21.3904 12.1439L16.4796 15.8688C16.3707 15.9514 16.2736 16.0485 16.191 16.1574L12.4662 21.0681C11.866 21.8595 10.6762 21.8595 10.076 21.0681L6.35115 16.1574C6.26854 16.0485 6.17144 15.9514 6.06254 15.8688L1.15178 12.1439C0.360432 11.5437 0.360432 10.354 1.15178 9.75372L6.06254 6.02888C6.17144 5.94628 6.26854 5.84917 6.35115 5.74027L10.076 0.82951Z" fill="#DECBA4"/>
</svg>
